<?xml version="1.0" ?><svg data-name="Layer 3" id="Layer_3" viewBox="0 0 100 100" xmlns="http://www.w3.org/2000/svg"><title/><path d="M60.10938,45.46973c-.08985.0205-.18946.0498-.2793.08007a2.208,2.208,0,0,0-.26074.13965,2.26127,2.26127,0,0,0-.2295.19043,1.52247,1.52247,0,0,0,0,2.12012,1.53808,1.53808,0,0,0,1.07032.43945,1.51909,1.51909,0,0,0,1.5-1.5,1.50779,1.50779,0,0,0-.4502-1.05957,1.446,1.446,0,0,0-.21973-.19043,2.208,2.208,0,0,0-.26074-.13965c-.08984-.03027-.18945-.05957-.27929-.08007A1.468,1.468,0,0,0,60.10938,45.46973Z"/><path d="M53.40527,51.08105H46.59473a5.65186,5.65186,0,1,0,0,11.30372h6.81054a5.65186,5.65186,0,1,0,0-11.30372Zm0,8.30372H46.59473a2.65186,2.65186,0,1,1,0-5.30372h6.81054a2.65186,2.65186,0,1,1,0,5.30372Z"/><path d="M54.4502,56.16016a1.5212,1.5212,0,0,0-.33008-.49024,1.50533,1.50533,0,0,0-1.35059-.41015,1.333,1.333,0,0,0-.2793.08984,1.26845,1.26845,0,0,0-.26074.14062A1.24822,1.24822,0,0,0,52,55.66992a2.15945,2.15945,0,0,0-.19043.22949,1.93951,1.93951,0,0,0-.21973.54,1.47278,1.47278,0,0,0-.03027.29,1.60774,1.60774,0,0,0,.11035.58008A1.5745,1.5745,0,0,0,52,57.79a1.4576,1.4576,0,0,0,1.05957.43945,1.57554,1.57554,0,0,0,.57031-.10937,1.53253,1.53253,0,0,0,.49024-.33008,1.59174,1.59174,0,0,0,.33008-.48047,1.62814,1.62814,0,0,0,.10937-.58008,1.54548,1.54548,0,0,0-.0293-.29A2.52665,2.52665,0,0,0,54.4502,56.16016Z"/><path d="M48.31934,56.16016a1.18239,1.18239,0,0,0-.12989-.26075A2.14973,2.14973,0,0,0,48,55.66992a1.7715,1.7715,0,0,0-.49023-.32031,1.32335,1.32335,0,0,0-.28028-.08984,1.41567,1.41567,0,0,0-.58008,0,1.67507,1.67507,0,0,0-.29.08984,1.21439,1.21439,0,0,0-.25.14062,1.01015,1.01015,0,0,0-.2295.17969,2.15945,2.15945,0,0,0-.19043.22949,1.27434,1.27434,0,0,0-.12988.26075,1.33268,1.33268,0,0,0-.08984.27929,1.55009,1.55009,0,0,0-.03028.29A1.49885,1.49885,0,0,0,45.87988,57.79,1.49829,1.49829,0,0,0,48,57.79a1.49792,1.49792,0,0,0,.43945-1.06055,1.54543,1.54543,0,0,0-.02929-.29A1.33536,1.33536,0,0,0,48.31934,56.16016Z"/><path d="M41.08984,46.93945a1.33371,1.33371,0,0,0-.03027-.29,1.04836,1.04836,0,0,0-.08008-.29,1.25681,1.25681,0,0,0-.13965-.25,1.05417,1.05417,0,0,0-.19043-.2295,1.35743,1.35743,0,0,0-.21972-.19043,2.195,2.195,0,0,0-.25977-.13965c-.08984-.03027-.19043-.05957-.28027-.08007a1.50268,1.50268,0,0,0-1.79981,1.46972,1.3865,1.3865,0,0,0,.12012.57032A1.43981,1.43981,0,0,0,38.53027,48a1.76321,1.76321,0,0,0,.48926.33008,1.56711,1.56711,0,0,0,1.15039,0A1.58714,1.58714,0,0,0,40.64941,48a1.46775,1.46775,0,0,0,.33008-.49023A1.37852,1.37852,0,0,0,41.08984,46.93945Z"/><path d="M82.60059,33.11328a1.49779,1.49779,0,0,0-.66211-1.04883,1.51455,1.51455,0,0,0-1.22657-.19531c-.04589.0127-4.65234,1.22949-11.60449-.74512-3.49316-.99023-6.2207-.91113-8.10156.24219a4.816,4.816,0,0,0-1.10822.9314,15.89321,15.89321,0,0,0-7.9953-2.15991H48.09766a15.89321,15.89321,0,0,0-7.9953,2.15991,4.816,4.816,0,0,0-1.10822-.9314c-1.87988-1.15332-4.60547-1.23144-8.10156-.24219-6.95508,1.97461-11.56055.75782-11.59863.74707a1.50082,1.50082,0,0,0-1.89454,1.24219c-.04394.32422-1.02148,7.99317,3.67481,12.71094,2.30078,2.31055,5.498,3.47461,9.53223,3.47461.48065,0,.975-.0188,1.47949-.05194v5.80877a8.68019,8.68019,0,0,0,3.8916,7.25l9.2168,6.1084a8.68274,8.68274,0,0,0,9.61132,0l9.2168-6.1084a8.68019,8.68019,0,0,0,3.8916-7.25V49.247c.50427.03308.99854.05188,1.47949.05188.0702,0,.13538-.00684.20508-.00757v1.45679a1.5,1.5,0,0,0,3,0V49.01086a11.67007,11.67007,0,0,0,6.32715-3.18664C83.62207,41.10645,82.64453,33.4375,82.60059,33.11328ZM32.08594,46.14941v.08167c-3.91907.29089-6.90778-.54431-8.875-2.51331-2.544-2.54589-2.92481-6.46386-2.91992-8.6289a29.18333,29.18333,0,0,0,11.41992-1.07813c2.46679-.70117,4.44726-.75976,5.57812-.165a2.08421,2.08421,0,0,1,.3324.22284A15.96648,15.96648,0,0,0,32.08594,46.14941Zm32.82812,8.90625a5.68539,5.68539,0,0,1-2.5498,4.75l-9.2168,6.1084a5.68554,5.68554,0,0,1-6.29492,0l-9.2168-6.1084a5.68539,5.68539,0,0,1-2.5498-4.75V46.14941A13.0263,13.0263,0,0,1,48.09766,33.1377h3.80468A12.92517,12.92517,0,0,1,59.544,35.64105l.02441.01825a12.989,12.989,0,0,1,5.34564,10.49011Zm11.875-11.33789a8.54342,8.54342,0,0,1-4.19043,2.237V44.84766a1.5,1.5,0,0,0-3,0v1.44159c-.53991.00677-1.103-.01441-1.68457-.05774v-.0821A15.96653,15.96653,0,0,0,62.3797,34.06952a2.049,2.049,0,0,1,.33124-.22382c1.1289-.59375,3.1084-.53613,5.57812.165A29.18435,29.18435,0,0,0,79.709,35.08887C79.71387,37.25488,79.332,41.17285,76.78906,43.71777Z"/></svg>